<svg xmlns="http://www.w3.org/2000/svg" width="256" height="256" xml:space="preserve"><path fill="#FFFBDC" d="M0 0h256v256H0z"/><path fill="#C2A466" d="M0 0h16v256H0z"/><g style="stroke:none;stroke-width:0;stroke-dasharray:none;stroke-linecap:butt;stroke-linejoin:miter;stroke-miterlimit:10;fill:#636c76;fill-rule:nonzero;opacity:1"><path d="M72.737 90H17.262a5.584 5.584 0 0 1-5.578-5.578V18.599a5.584 5.584 0 0 1 5.578-5.578h10.485a2 2 0 0 1 0 4H17.262a1.58 1.58 0 0 0-1.578 1.578v65.823c0 .87.708 1.578 1.578 1.578h55.475a1.58 1.58 0 0 0 1.578-1.578V18.599a1.58 1.58 0 0 0-1.578-1.578H62.252a2 2 0 0 1 0-4h10.485a5.584 5.584 0 0 1 5.578 5.578v65.823A5.584 5.584 0 0 1 72.737 90z" style="stroke:none;stroke-width:1;stroke-dasharray:none;stroke-linecap:butt;stroke-linejoin:miter;stroke-miterlimit:10;fill-rule:nonzero;opacity:1" transform="matrix(2.81 0 0 2.81 1.407 1.407)"/><path d="M62.252 21.57H27.748a2 2 0 0 1-2-2v-5.494c0-4.028 3.277-7.306 7.306-7.306h2.788C37.044 2.808 40.71 0 45 0s7.955 2.808 9.158 6.77h2.789c4.027 0 7.305 3.277 7.305 7.306v5.494a2 2 0 0 1-2 2zm-32.504-4h30.504v-3.494a3.309 3.309 0 0 0-3.305-3.306h-4.416a2 2 0 0 1-1.989-1.79A5.558 5.558 0 0 0 45 4a5.558 5.558 0 0 0-5.543 4.98 2 2 0 0 1-1.989 1.79h-4.415a3.31 3.31 0 0 0-3.306 3.306v3.494zM27.618 40.754a1.999 1.999 0 0 1-1.687-.926l-3.096-4.866a2 2 0 1 1 3.375-2.147l1.691 2.657 5.403-5.939a2 2 0 1 1 2.959 2.691L29.097 40.1a2.002 2.002 0 0 1-1.479.654zM27.618 59.834a1.997 1.997 0 0 1-1.687-.927l-3.096-4.866a2 2 0 1 1 3.375-2.147l1.691 2.657 5.403-5.939a2 2 0 0 1 2.959 2.691l-7.165 7.876a2 2 0 0 1-1.48.655zM27.618 78.914a1.997 1.997 0 0 1-1.687-.927l-3.096-4.866a2 2 0 1 1 3.375-2.147l1.691 2.657 5.403-5.94a2 2 0 0 1 2.959 2.691l-7.165 7.877a2 2 0 0 1-1.48.655zM65.479 37.177H42.254a2 2 0 0 1 0-4h23.224a2 2 0 0 1 .001 4zM65.479 56.257H42.254a2 2 0 0 1 0-4h23.224a2 2 0 0 1 .001 4zM65.479 75.336H42.254a2 2 0 0 1 0-4h23.224a2 2 0 0 1 .001 4z" style="stroke:none;stroke-width:1;stroke-dasharray:none;stroke-linecap:butt;stroke-linejoin:miter;stroke-miterlimit:10;fill-rule:nonzero;opacity:1" transform="matrix(2.81 0 0 2.81 1.407 1.407)"/></g></svg>
